<?xml version="1.0" ?><svg id="Layer_1_1_" style="enable-background:new 0 0 64 64;" version="1.1" viewBox="0 0 64 64" xml:space="preserve" xmlns="http://www.w3.org/2000/svg" xmlns:xlink="http://www.w3.org/1999/xlink"><g><path d="M25,47c-3.309,0-6,2.691-6,6s2.691,6,6,6s6-2.691,6-6S28.309,47,25,47z M25,57c-2.206,0-4-1.794-4-4   s1.794-4,4-4s4,1.794,4,4S27.206,57,25,57z" style="fill:#3F3A34;"/><path d="M63,49c0-5.928-2.732-11.228-7-14.715V15.414l2.086-2.086C58.676,12.739,59,11.955,59,11.121   C59,9.4,57.6,8,55.879,8c-0.822,0-1.626,0.333-2.207,0.914L37.213,25.372C34.745,16.521,26.628,10,17,10H1v48h15.353   c1.732,2.984,4.955,5,8.647,5s6.915-2.016,8.647-5H63V49z M57.717,39H53c-4.053,0-7.403-3.032-7.922-6.945   C50.267,32.382,54.822,35.04,57.717,39z M54,32.875C51.091,31.064,47.671,30,44,30h-2.586L54,17.414V32.875z M55.086,10.328   C55.295,10.12,55.584,10,55.879,10C56.497,10,57,10.503,57,11.121c0,0.3-0.116,0.581-0.328,0.793L38.586,30h-0.609   c-0.037-0.784-0.128-1.554-0.249-2.314L55.086,10.328z M17,12c10.477,0,19,8.523,19,19v1h7.051c0.144,1.447,0.606,2.8,1.302,4   H32.588l-8.572-15.428C23.136,18.986,21.461,18,19.646,18H3v-6H17z M30.3,36H3V20h16.646c1.089,0,2.094,0.591,2.622,1.543L30.3,36z    M3,56v-3h12c0,1.045,0.163,2.052,0.461,3H3z M25,61c-4.411,0-8-3.589-8-8s3.589-8,8-8s8,3.589,8,8S29.411,61,25,61z M34.539,56   C34.838,55.052,35,54.045,35,53h22v-2H34.798c-0.929-4.559-4.969-8-9.798-8s-8.869,3.441-9.798,8H3V38h42.871   c1.816,1.849,4.34,3,7.129,3h5.992C60.27,43.386,61,46.109,61,49v2h-2v2h2v3H34.539z" style="fill:#3F3A34;"/></g></svg>